<svg viewBox="0 0 1273 695" xmlns="http://www.w3.org/2000/svg" xmlns:xlink="http://www.w3.org/1999/xlink">
<g transform="translate(636.5,347.5)">
<path d="M -202.51548177546746 -8.561770142280551 C -108.41342642088148 43.19436030274176 -108.41342642088148 96.51885833700715 -202.51548177546746 148.27498878202942 C -150.75935133044516 242.3770441366154 -97.43485329617977 242.3770441366154 -45.67872285115749 148.27498878202942 C 61.69411285675457 146.04608487170694 88.35636187388727 192.22645481343415 32.739656610997514 284.0996062576976 C 124.61280805526096 339.7163115205874 170.7931779969882 313.0540625034547 168.56427408666573 205.68122679554264 C 74.46221873207972 153.92509635052036 74.46221873207972 100.60059831625495 168.56427408666573 48.844467871232666 C 220.320404531688 142.94652322581865 273.64490256595343 142.94652322581865 325.40103301097565 48.844467871232666 C 269.78432774808596 -43.02868357303086 296.44657676521865 -89.20905351475801 403.8194124731307 -86.98014960443555 C 406.0483163834531 -194.35298531234758 359.86794644172596 -221.01523432948028 267.99479499746246 -165.39852906659053 C 270.22369890778486 -58.02569335867844 224.04332896605771 -31.363444341545744 132.17017752179422 -86.98014960443555 C 187.78688278468402 -178.8533010486991 161.1246337675514 -225.0336709904263 53.7517980596393 -222.80476708010383 C 1.9956676146169627 -128.70271172551787 -51.328830419648426 -128.70271172551787 -103.0849608646707 -222.80476708010383 C -154.84109130969298 -316.90682243468984 -208.1655893439584 -316.90682243468984 -259.9217197889807 -222.80476708010383 C -204.30501452609087 -130.93161563584027 -230.96726354322357 -84.75124569411301 -338.3400992511357 -86.98014960443555 C -340.56900316145817 20.392686103476564 -294.388633219731 47.054935120609244 -202.51548177546746 -8.561770142280551" stroke="black" stroke-weight="0.1" fill="rgb(229,189,63)" />
</g>
</svg>
